<svg xmlns="http://www.w3.org/2000/svg" viewBox="0 0 148 148" role="img" aria-labelledby="titulo descricao">
<title id="titulo">Decalque de estrela naitica</title>
<desc id="descricao">Ilustra??o vetorial original em tra?o preto com detalhes vinho.</desc>
<g fill="none" stroke="#171717" stroke-width="2.7" stroke-linecap="round" stroke-linejoin="round"><path d="m74 20 10 34 32-18-18 32 34 10-34 10 18 32-32-18-10 34-10-34-32 18 18-32-34-10 34-10-18-32 32 18Z"/><path d="m74 20 0 44 34-18-26 29 50 5-50 5 26 29-34-18v44l-10-44-34 18 26-29-50-5 50-5-26-29 34 18Z"/><circle cx="74" cy="74" r="7" class="vermelho"/></g>
<style>.vermelho{fill:#8f1d2c;stroke:#8f1d2c}</style>
</svg>